<svg version="1.0" xmlns="http://www.w3.org/2000/svg"
 width="300.000000pt" height="300.000000pt" viewBox="0 0 300.000000 300.000000"
 preserveAspectRatio="xMidYMid meet">

<g transform="translate(0.000000,300.000000) scale(0.100000,-0.100000)"
fill="#228B22" stroke="none">
<path d="M1670 2919 c-30 -16 -95 -43 -144 -61 -75 -26 -98 -40 -153 -91 -56
-53 -66 -59 -74 -44 -6 9 -18 17 -28 17 -24 0 -143 -85 -209 -149 -29 -28 -60
-51 -67 -51 -16 0 -39 -32 -50 -70 -12 -41 -24 -51 -45 -37 -33 20 -90 -47
-104 -123 -13 -67 -38 -111 -65 -116 -42 -9 -59 -27 -91 -98 -21 -48 -30 -83
-30 -122 0 -48 -3 -56 -30 -75 -30 -23 -51 -71 -69 -159 -18 -85 -21 -94 -35
-102 -8 -4 -20 -39 -27 -78 -8 -46 -17 -70 -26 -70 -7 0 -13 -11 -13 -27 -1
-29 -7 -86 -16 -141 -3 -18 -14 -38 -24 -45 -27 -16 -26 -78 1 -137 16 -35 21
-68 22 -147 1 -90 3 -104 19 -109 26 -8 46 -42 51 -85 2 -20 11 -47 20 -60 12
-17 17 -45 17 -99 0 -83 13 -107 73 -129 15 -6 27 -18 27 -28 0 -10 10 -23 22
-28 16 -7 25 -22 29 -47 3 -20 17 -52 31 -70 14 -18 29 -48 33 -66 10 -46 59
-99 98 -107 18 -4 52 -18 76 -32 38 -22 50 -24 105 -19 43 5 71 3 96 -7 19 -8
76 -18 125 -22 50 -3 109 -11 133 -17 52 -13 117 -5 141 16 10 9 46 18 92 22
40 4 77 11 80 16 3 5 36 15 73 23 37 8 82 23 100 35 19 11 41 20 50 20 9 0 19
6 22 14 3 8 20 17 38 20 18 4 41 15 51 26 10 11 23 20 29 20 7 0 36 16 66 35
30 19 65 35 77 35 16 0 23 6 23 18 0 12 17 26 51 42 50 24 111 81 130 123 6
13 31 36 55 51 53 33 97 94 93 128 -2 13 9 41 23 63 15 22 36 70 47 107 22 72
54 143 71 153 5 3 10 16 10 28 0 18 -14 30 -62 55 -35 18 -91 48 -124 67 -41
23 -82 38 -120 43 -53 7 -59 10 -56 29 2 15 -5 26 -24 36 l-27 14 27 18 c-15
10 26 25 24 34 -2 9 12 35 30 56 33 41 72 145 72 194 0 15 13 47 29 72 22 34
31 61 36 118 l7 74 -25 -5 c-23 -4 -25 -3 -17 13 15 27 12 148 -6 204 -11 36
-14 69 -9 119 l6 69 -25 -7 c-15 -4 -93 -11 -174 -16 -81 -5 -169 -16 -197
-25 -27 -8 -51 -15 -52 -15 -2 0 -3 15 -3 33 0 17 -5 50 -10 72 -7 28 -6 59 2
102 15 82 -4 164 -41 173 -19 4 -26 13 -28 40 -5 49 -25 97 -67 158 -19 29
-43 77 -52 107 -21 65 -31 67 -114 24z"/>
</g>
</svg>
