<svg xmlns="http://www.w3.org/2000/svg" viewBox="0 0 512 512" role="img" aria-label="Hortelan icon">
  <defs>
    <linearGradient id="leafGradient" x1="0%" y1="0%" x2="100%" y2="100%">
      <stop offset="0%" stop-color="#B9E440"/>
      <stop offset="45%" stop-color="#2ABF58"/>
      <stop offset="100%" stop-color="#006A5A"/>
    </linearGradient>
  </defs>
  <path fill="url(#leafGradient)" d="M243 396c-23-105-84-181-190-181-3 80 39 156 126 186 27 9 50 6 64-5z"/>
  <path fill="url(#leafGradient)" d="M275 395c22-106 84-181 190-181 3 81-40 157-128 186-26 9-49 6-62-5z"/>
  <path fill="url(#leafGradient)" d="M259 404c4-119 56-216 128-263-100-10-184 97-190 263h62z"/>
  <path d="M412 178c36-2 68 16 80 48" fill="none" stroke="#65c95f" stroke-width="8" stroke-linecap="round"/>
  <path d="M417 206c26 1 47 14 57 35" fill="none" stroke="#57bf58" stroke-width="8" stroke-linecap="round"/>
  <path d="M421 231c16 2 29 10 35 23" fill="none" stroke="#3fb34f" stroke-width="8" stroke-linecap="round"/>
  <circle cx="396" cy="236" r="10" fill="#50bc58"/>
</svg>
